<svg width="14" height="14" viewBox="0 0 14 14" fill="none" xmlns="http://www.w3.org/2000/svg">
<path d="M3.50657 7.51417L9.43273 13.3778C9.56979 13.5135 9.75276 13.5883 9.94786 13.5883C10.143 13.5883 10.3259 13.5135 10.463 13.3778L10.8994 12.946C11.1834 12.6647 11.1834 12.2075 10.8994 11.9266L5.92307 7.00275L10.9049 2.0734C11.042 1.93767 11.1177 1.75674 11.1177 1.56381C11.1177 1.37066 11.042 1.18973 10.9049 1.05389L10.4685 0.622287C10.3313 0.48656 10.1485 0.411787 9.95338 0.411787C9.75828 0.411787 9.57532 0.48656 9.43825 0.622287L3.50657 6.49123C3.36918 6.62739 3.29371 6.80918 3.29415 7.00243C3.29371 7.19644 3.36918 7.37812 3.50657 7.51417Z" fill="white"/>
</svg>
