<svg width="14" height="14" viewBox="0 0 14 14" fill="none" xmlns="http://www.w3.org/2000/svg">
<path d="M11.1111 6.69176L5.18495 0.828176C5.04788 0.692449 4.86491 0.617676 4.66982 0.617676C4.47472 0.617676 4.29175 0.692449 4.15469 0.828176L3.71826 1.25989C3.43428 1.5412 3.43428 1.99841 3.71826 2.27929L8.69461 7.20318L3.71274 12.1325C3.57568 12.2683 3.5 12.4492 3.5 12.6421C3.5 12.8353 3.57568 13.0162 3.71274 13.152L4.14916 13.5836C4.28634 13.7194 4.4692 13.7941 4.66429 13.7941C4.85939 13.7941 5.04236 13.7194 5.17942 13.5836L11.1111 7.7147C11.2485 7.57854 11.324 7.39675 11.3235 7.2035C11.324 7.0095 11.2485 6.82781 11.1111 6.69176Z" fill="white"/>
</svg>
