<svg width="24" height="24" viewBox="0 0 24 24" fill="none" xmlns="http://www.w3.org/2000/svg">
<path d="M22.2418 6.88898C21.2722 6.88898 20.4835 7.67774 20.4835 8.64721C20.4835 9.36684 20.9181 9.9869 21.5386 10.2587V13.7987C21.5386 13.9361 21.4266 14.0481 21.2892 14.0481L0 14.0509V15.1417C0 16.1326 0.806719 16.9394 1.79766 16.9394H16.9669C17.8519 16.9394 18.5892 16.2967 18.7378 15.4544H21.2892C22.2023 15.4544 22.9448 14.7114 22.9448 13.7987V10.2587C23.5654 9.98695 24 9.36688 24 8.64721C24 7.67774 23.2113 6.88898 22.2418 6.88898Z" fill="white"/>
<path d="M5.86078 10.7477C5.86078 10.3595 6.17531 10.0445 6.56391 10.0445C6.95203 10.0445 7.26703 10.3595 7.26703 10.7477V12.6447H11.2964V10.7477C11.2964 10.3595 11.6114 10.0445 11.9995 10.0445C12.3881 10.0445 12.7027 10.3595 12.7027 10.7477V12.6447H18.765V4.70641C18.765 3.71547 17.9583 2.90875 16.9669 2.90875H12.7031V4.45938C12.7031 4.8475 12.3881 5.1625 12 5.1625C11.6119 5.1625 11.2969 4.8475 11.2969 4.45938V2.90875H7.26703V4.38953C7.26703 4.77766 6.95203 5.09266 6.56391 5.09266C6.17578 5.09266 5.86078 4.77766 5.86078 4.38953V2.90875H1.79766C0.806719 2.90875 0 3.71547 0 4.70641V12.6447H5.86078V10.7477ZM14.4852 5.93177H16.368C16.6286 5.93177 16.8679 6.07596 16.9897 6.30644C17.1114 6.53692 17.0957 6.81578 16.9488 7.03113L16.7447 7.33028C16.2428 8.06622 15.9776 8.926 15.9776 9.81677C15.9776 10.2051 15.6628 10.5199 15.2745 10.5199C14.8861 10.5199 14.5713 10.2051 14.5713 9.81677C14.5713 8.95211 14.7609 8.10963 15.125 7.33802H14.4852C14.0969 7.33802 13.7821 7.02321 13.7821 6.63489C13.7821 6.24658 14.0969 5.93177 14.4852 5.93177ZM8.31033 5.88677H10.1931C10.4537 5.88677 10.6929 6.03096 10.8147 6.26139C10.9365 6.49183 10.9208 6.77074 10.774 6.98603L10.5699 7.28519C10.068 8.02113 9.80274 8.88096 9.80274 9.77172C9.80274 10.16 9.48792 10.4748 9.09961 10.4748C8.7113 10.4748 8.39649 10.16 8.39649 9.77172C8.39649 8.90702 8.586 8.06453 8.95013 7.29297H8.31038C7.92206 7.29297 7.60725 6.97816 7.60725 6.58985C7.60725 6.20153 7.92202 5.88677 8.31033 5.88677ZM4.59909 7.03108L4.395 7.33024C3.89311 8.06608 3.62784 8.92596 3.62784 9.81672C3.62784 10.205 3.31303 10.5198 2.92472 10.5198C2.53641 10.5198 2.22159 10.205 2.22159 9.81672C2.22159 8.95207 2.4112 8.10949 2.77519 7.33797H2.13544C1.74713 7.33797 1.43231 7.02316 1.43231 6.63485C1.43231 6.24653 1.74713 5.93172 2.13544 5.93172H4.01822C4.27889 5.93172 4.51814 6.07591 4.63992 6.30639C4.7617 6.53688 4.746 6.81574 4.59909 7.03108Z" fill="white"/>
<path d="M18.0617 19.685H16.1794V18.3334H2.58563V19.685H0.703125C0.314813 19.685 0 19.9998 0 20.3881C0 20.7764 0.314813 21.0912 0.703125 21.0912H18.0617C18.45 21.0912 18.7648 20.7764 18.7648 20.3881C18.7648 19.9998 18.4501 19.685 18.0617 19.685Z" fill="white"/>
</svg>
