<svg width="17" height="16" viewBox="0 0 17 16" fill="none" xmlns="http://www.w3.org/2000/svg">
<path d="M3.32494 7.63829C6.54616 6.22707 8.69414 5.2967 9.76889 4.8472C12.8375 3.56377 13.4751 3.34082 13.8907 3.33338C13.9822 3.33184 14.1865 3.35462 14.3189 3.46264C14.4307 3.55385 14.4615 3.67707 14.4762 3.76354C14.4909 3.85002 14.5092 4.04702 14.4947 4.20095C14.3284 5.95787 13.6088 10.2214 13.2428 12.1892C13.0879 13.0219 12.7829 13.301 12.4876 13.3284C11.846 13.3877 11.3587 12.9019 10.7372 12.4923C9.76468 11.8512 9.21527 11.4522 8.27127 10.8267C7.18032 10.1038 7.88754 9.70643 8.50927 9.05709C8.67198 8.88715 11.4992 6.30128 11.5539 6.06671C11.5608 6.03737 11.5671 5.92801 11.5025 5.87026C11.4379 5.81252 11.3426 5.83227 11.2738 5.84797C11.1762 5.87023 9.6226 6.90281 6.61292 8.9457C6.17193 9.2502 5.7725 9.39856 5.41462 9.39079C5.02009 9.38222 4.26117 9.16647 3.69699 8.98206C3.005 8.75588 2.45502 8.63629 2.50291 8.25216C2.52785 8.05208 2.80186 7.84745 3.32494 7.63829Z" fill="white"/>
</svg>
