<svg width="20" height="20" viewBox="0 0 20 20" fill="none" xmlns="http://www.w3.org/2000/svg">
<rect width="20" height="20" rx="10" fill="#1BA27A"/>
<path d="M14.7017 5.06384V7.33826H11.1284V8.84314C13.9147 8.96043 16.0229 9.50858 16.0229 10.1674C16.0221 10.826 13.914 11.3744 11.1284 11.4916V16.2885H8.854V11.4896C6.08948 11.3687 4.0023 10.8226 4.00146 10.1674C4.00146 9.51193 6.08886 8.96614 8.854 8.84509V7.33826H5.27979V5.06384H14.7017ZM11.1284 10.682H8.854V8.97302C6.45488 9.07637 4.6601 9.49317 4.65967 9.99255C4.65967 10.5698 7.05609 11.0375 10.0122 11.0375C12.9684 11.0375 15.3657 10.5698 15.3657 9.99255C15.3653 9.49023 13.5487 9.07032 11.1284 8.97009V10.682Z" fill="white"/>
</svg>
