<svg width="400" height="400" viewBox="0 0 400 400" fill="none" xmlns="http://www.w3.org/2000/svg">
<g clip-path="url(#clip0_271_3018)">
<path opacity="0.1" d="M118.172 189.313C116.799 199.709 117.394 210.583 120.318 221.496L75.6818 233.456C71.1578 216.573 70.2083 199.574 72.3629 183.261L118.172 189.313ZM97.9046 278.584C87.8828 265.534 80.2056 250.339 75.6818 233.456L120.318 221.496C123.242 232.409 128.164 242.124 134.551 250.441L97.9046 278.584ZM166.831 75.5808C183.715 71.0569 200.713 70.1051 217.026 72.2596L210.975 118.071C200.579 116.698 189.704 117.293 178.792 120.217C167.879 123.141 158.164 128.063 149.847 134.45L121.703 97.8013C134.753 87.7798 149.949 80.1045 166.831 75.5808ZM233.557 324.606C216.674 329.13 199.677 330.078 183.364 327.924L189.414 282.116C199.81 283.489 210.684 282.893 221.597 279.969C232.51 277.045 242.225 272.124 250.542 265.737L278.687 302.383C265.637 312.405 250.441 320.082 233.557 324.606ZM324.707 166.73C329.231 183.613 330.182 200.611 328.028 216.923L282.217 210.874C283.59 200.478 282.994 189.603 280.07 178.691C277.146 167.778 272.225 158.063 265.838 149.746L302.486 121.6C312.508 134.65 320.183 149.847 324.707 166.73Z" fill="black"/>
<path opacity="0.3" d="M167.82 158.011C162.466 162.116 157.789 167.334 154.155 173.629L128.406 158.763C134.029 149.024 141.331 140.858 149.733 134.417L167.82 158.011ZM117.986 189.404C119.363 178.908 122.784 168.502 128.406 158.763L154.155 173.629C150.521 179.924 148.34 186.583 147.462 193.272L117.986 189.404ZM241.7 128.406C251.439 134.029 259.605 141.33 266.047 149.731L242.452 167.82C238.347 162.466 233.129 157.789 226.834 154.155C220.539 150.52 213.88 148.34 207.19 147.462L211.06 117.984C221.556 119.362 231.961 122.784 241.7 128.406ZM158.763 272.056C149.024 266.434 140.86 259.132 134.418 250.731L158.011 232.643C162.116 237.997 167.334 242.673 173.629 246.308C179.924 249.942 186.583 252.123 193.272 253.001L189.405 282.478C178.909 281.1 168.503 277.679 158.763 272.056ZM272.056 241.7C266.434 251.438 259.133 259.604 250.732 266.045L232.643 242.452C237.997 238.347 242.673 233.129 246.308 226.834C249.942 220.539 252.123 213.879 253.001 207.19L282.479 211.058C281.102 221.555 277.679 231.96 272.056 241.7Z" fill="black"/>
<path opacity="0.05" d="M121.624 97.835C108.639 107.791 97.2973 120.446 88.4828 135.713L26.035 99.6592C39.6724 76.0385 57.3807 56.2347 77.7574 40.6127L121.624 97.835ZM0.762344 173.972C4.10335 148.515 12.3982 123.279 26.035 99.6592L88.4828 135.713C79.6683 150.981 74.3791 167.131 72.2499 183.354L0.762344 173.972ZM300.804 26.0351C324.424 39.6723 344.23 57.3781 359.852 77.7543L302.628 121.624C292.672 108.639 280.017 97.2974 264.749 88.4829C249.482 79.6683 233.332 74.3792 217.109 72.25L226.493 0.759215C251.949 4.10034 277.184 12.3986 300.804 26.0351ZM99.6591 374.428C76.0394 360.791 56.2375 343.083 40.6158 322.707L97.8349 278.839C107.79 291.824 120.446 303.166 135.713 311.98C150.98 320.795 167.131 326.084 183.354 328.213L173.975 399.702C148.517 396.362 123.28 388.065 99.6591 374.428ZM374.428 300.804C360.791 324.423 343.085 344.227 322.71 359.849L278.838 302.628C291.823 292.672 303.165 280.017 311.98 264.75C320.794 249.482 326.084 233.332 328.213 217.109L399.705 226.489C396.365 251.947 388.065 277.183 374.428 300.804Z" fill="black"/>
</g>
<defs>
<clipPath id="clip0_271_3018">
<rect width="400" height="400" fill="white"/>
</clipPath>
</defs>
</svg>
